<?xml version="1.0" encoding="UTF-8" standalone="no"?>
<!-- Created with Inkscape (http://www.inkscape.org/) -->

<svg
   xmlns:dc="http://purl.org/dc/elements/1.1/"
   xmlns:cc="http://creativecommons.org/ns#"
   xmlns:rdf="http://www.w3.org/1999/02/22-rdf-syntax-ns#"
   xmlns:svg="http://www.w3.org/2000/svg"
   xmlns="http://www.w3.org/2000/svg"
   xmlns:xlink="http://www.w3.org/1999/xlink"
   xmlns:sodipodi="http://sodipodi.sourceforge.net/DTD/sodipodi-0.dtd"
   xmlns:inkscape="http://www.inkscape.org/namespaces/inkscape"
   width="114.83614mm"
   height="88.902603mm"
   viewBox="0 0 406.89969 315.00922"
   id="svg2"
   version="1.1"
   inkscape:version="0.91 r13725"
   sodipodi:docname="logo.svg">
  <defs
     id="defs4">
    <linearGradient
       inkscape:collect="always"
       id="linearGradient4445">
      <stop
         style="stop-color:#c4b6a8;stop-opacity:1"
         offset="0"
         id="stop4447" />
      <stop
         style="stop-color:#e4dfd3;stop-opacity:1"
         offset="1"
         id="stop4449" />
    </linearGradient>
    <linearGradient
       inkscape:collect="always"
       id="linearGradient4404">
      <stop
         style="stop-color:#df957d;stop-opacity:1"
         offset="0"
         id="stop4406" />
      <stop
         style="stop-color:#e5bfc1;stop-opacity:1"
         offset="1"
         id="stop4408" />
    </linearGradient>
    <linearGradient
       inkscape:collect="always"
       xlink:href="#linearGradient4404"
       id="linearGradient4410"
       x1="170.71587"
       y1="258.96701"
       x2="493.46027"
       y2="267.04822"
       gradientUnits="userSpaceOnUse" />
    <linearGradient
       inkscape:collect="always"
       xlink:href="#linearGradient4445"
       id="linearGradient4451"
       x1="267.76407"
       y1="121.98155"
       x2="420.40292"
       y2="234.06062"
       gradientUnits="userSpaceOnUse" />
  </defs>
  <sodipodi:namedview
     id="base"
     pagecolor="#ffffff"
     bordercolor="#666666"
     borderopacity="1.0"
     inkscape:pageopacity="0.0"
     inkscape:pageshadow="2"
     inkscape:zoom="1.4142136"
     inkscape:cx="131.93889"
     inkscape:cy="113.70007"
     inkscape:document-units="px"
     inkscape:current-layer="g4574"
     showgrid="false"
     inkscape:window-width="1871"
     inkscape:window-height="1056"
     inkscape:window-x="1969"
     inkscape:window-y="24"
     inkscape:window-maximized="1"
     inkscape:snap-grids="true"
     objecttolerance="20"
     fit-margin-top="1"
     fit-margin-left="1"
     fit-margin-bottom="1"
     fit-margin-right="1">
    <inkscape:grid
       type="xygrid"
       id="grid4507"
       originx="-122.82943"
       originy="-633.49588" />
  </sodipodi:namedview>
  <metadata
     id="metadata7">
    <rdf:RDF>
      <cc:Work
         rdf:about="">
        <dc:format>image/svg+xml</dc:format>
        <dc:type
           rdf:resource="http://purl.org/dc/dcmitype/StillImage" />
        <dc:title></dc:title>
      </cc:Work>
    </rdf:RDF>
  </metadata>
  <g
     inkscape:label="Layer 1"
     inkscape:groupmode="layer"
     id="layer1"
     transform="translate(-122.82944,-103.85712)">
    <g
       id="g4400">
      <g
         id="g4563">
        <g
           id="g4574"
           transform="matrix(0.89665249,0,0,0.91583277,28.370763,8.976638)">
          <g
             id="g4559" />
          <g
             id="g4589">
            <path
               transform="matrix(1.1152593,0,0,1.0919024,-31.640756,-9.8016126)"
               style="fill:url(#linearGradient4410);fill-opacity:1"
               d="m 320.69141,109.79492 -5.52344,1.10547 -12.12305,3.53516 -15.65625,3.03125 -18.18359,1.51367 -15.15235,7.07226 -30.30468,7.07032 -24.74805,15.6582 -12.12109,17.67773 -18.68946,11.61524 -19.69726,27.7793 -1.00977,10.60742 -13.63672,24.24414 -3.03125,26.76953 -1.00976,22.72656 4.04101,16.66797 1.00977,18.18359 13.63672,22.22266 16.66797,10.10156 13.13086,0 12.62695,0 19.69922,15.15235 12.12109,13.63672 14.64844,5.55664 21.21289,-1.51563 17.67773,-6.06055 10.60547,14.14258 15.15235,7.57617 26.23437,6.31446 10.63672,-0.75977 16.66797,-3.53515 12.12109,1.00976 19.69727,-4.04101 14.14258,-9.08985 7.57617,3.53516 20.20312,5.05078 9.59766,-4.04102 15.15234,-6.06054 13.63672,-11.11133 8.08008,-12.62695 2.52539,-17.17383 -1.00976,-6.56446 16.66796,-14.64843 11.11133,-13.63672 10.10156,-18.1836 7.07032,-13.63671 1.01172,-21.2129 -4.04102,-18.6875 -5.05078,-29.79882 -5.05078,-8.08203 -5.05078,-6.06055 -14.14258,-28.78906 -18.18164,-19.19336 -6.56641,-3.53516 -10.10156,-11.61719 -20.70899,-13.13281 -9.09179,0 -25.75782,-11.61523 -25.2539,2.01953 -17.67774,2.01953 -13.13281,-5.05078 -22.72851,-4.03907 -0.0312,-0.0957 z"
               id="rect3541"
               inkscape:connector-curvature="0" />
            <path
               transform="matrix(1.1152593,0,0,1.0919024,-31.640756,-9.8016126)"
               style="fill:#470f2c;fill-opacity:1"
               d="m 317.28715,413.35567 c -3.025,-1.10887 -8.67821,-2.61703 -12.56269,-3.35147 -3.88448,-0.73444 -9.05948,-2.33455 -11.5,-3.5558 -5.61072,-2.80765 -12.51463,-9.37364 -15.08247,-14.34426 -1.50584,-2.91488 -2.38428,-3.66068 -3.66748,-3.11372 -7.86592,3.3528 -15.44144,4.70642 -26.68736,4.76858 -10.15214,0.0561 -12.86924,-0.27654 -17.64482,-2.16029 -7.25772,-2.86283 -13.08181,-7.11134 -16.81687,-12.26743 -1.63293,-2.25419 -5.12206,-5.44536 -7.75363,-7.09148 -2.63158,-1.64612 -6.60914,-4.75743 -8.83902,-6.91401 -3.75456,-3.63114 -4.28051,-3.84223 -7.11303,-2.85481 -2.13257,0.74342 -6.04454,0.76079 -12.92002,0.0574 -8.02331,-0.82086 -11.19537,-1.66823 -17.01876,-4.5463 -16.69613,-8.25168 -29.204,-29.53611 -29.40913,-50.04499 -0.0275,-2.75 -0.92063,-7.475 -1.98472,-10.5 -2.27233,-6.4598 -2.56319,-16.13131 -0.65031,-21.62427 0.90578,-2.60104 1.19516,-6.72051 0.87986,-12.52536 -0.80219,-14.76881 2.71738,-28.69744 9.49514,-37.57679 2.15915,-2.82864 4.52063,-7.82192 6.01362,-12.71561 5.55857,-18.21985 16.53594,-33.28749 31.37203,-43.06154 3.78931,-2.49642 6.89371,-4.86687 6.89866,-5.26768 0.005,-0.40081 2.81744,-3.9844 6.25,-7.96353 13.76487,-15.95671 31.72847,-26.25204 51.05956,-29.26334 4.09968,-0.63863 8.92051,-2.24844 12.08997,-4.03717 9.718,-5.4845 19.03038,-8.07178 32.09147,-8.91605 6.6,-0.42662 13.8,-1.44593 16,-2.26511 12.96909,-4.82916 35.16227,-4.95656 51,-0.29278 9.87497,2.90791 16.30114,3.27342 35.56227,2.02271 10.03872,-0.65185 12.64914,-0.47593 19.81063,1.33506 4.5366,1.14721 11.03358,3.42146 14.43773,5.05389 3.40415,1.63242 8.1425,3.26861 10.52967,3.63596 8.25306,1.27004 19.72366,8.042 30.24006,17.85298 5.36995,5.00974 13.40129,12.41802 17.84743,16.46283 9.58772,8.72229 17.75246,20.47859 22.77055,32.78701 1.94553,4.77201 5.39989,10.96742 7.67637,13.76758 7.58311,9.32757 12.57031,24.02296 12.60793,37.15082 0.01,3.33278 0.97155,9.83293 2.13779,14.44476 1.73897,6.87672 2.02799,10.28397 1.60662,18.94039 -0.61818,12.69934 -3.05991,20.42635 -8.70745,27.55524 -2.17856,2.75 -5.50007,7.9287 -7.38112,11.50822 -4.89268,9.31042 -13.37087,19.72779 -21.40477,26.30058 l -6.94225,5.67966 -0.57988,9.75577 c -0.99469,16.73423 -6.11695,27.43858 -16.24484,33.948 -2.73171,1.75573 -7.1968,5.08551 -9.92244,7.3995 -12.13687,10.3039 -24.58774,12.0124 -42.89409,5.8859 l -9.84979,-3.29638 -5.65021,2.78842 c -12.16498,6.00351 -18.7958,7.66602 -34.15021,8.56231 -7.975,0.46553 -17.64983,1.54878 -21.49963,2.40722 -9.35356,2.08569 -16.84298,1.91977 -23.50037,-0.52062 z m 24.27716,-5.40712 c 9.75293,-1.86626 12.46068,-3.27067 17.63112,-9.1446 5.97391,-6.78672 6.82292,-12.38513 1.8731,-12.35124 -2.44089,0.0167 -11.97728,2.21019 -15.28138,3.51489 -1.73701,0.6859 -1.67126,0.42746 0.5,-1.96539 4.70524,-5.18545 7.4121,-5.95726 23,-6.55802 13.4928,-0.52001 14.95151,-0.77143 21,-3.61953 7.46763,-3.51633 14.49779,-10.16716 19.77482,-18.70781 1.97789,-3.20113 4.90451,-6.49682 6.5036,-7.32374 3.87783,-2.0053 4.42683,-1.15218 1.28219,1.99246 -5.6303,5.63031 -1.75977,8.90951 7.95106,6.73632 12.08545,-2.7046 18.47358,-7.85953 24.52404,-19.78978 3.87203,-7.63485 4.02424,-13.55441 0.40944,-15.92291 -2.09905,-1.37536 -3.18683,-1.48004 -6.09731,-0.58679 -3.44192,1.05635 -3.49369,1.03333 -1.82423,-0.81141 0.94503,-1.04424 3.26528,-2.40919 5.15612,-3.03323 4.69686,-1.5501 8.51093,0.13889 10.70537,4.74069 1.61948,3.39608 1.89863,3.54391 5.72344,3.0309 7.3505,-0.98591 14.88651,-5.66934 24.13782,-15.00101 8.32202,-8.3943 9.36316,-8.65212 5.62902,-1.39394 -2.65347,5.15763 -9.20195,12.81128 -13.47933,15.7542 -2.54105,1.74829 -8.22639,4.45398 -12.6341,6.01266 -9.43904,3.33788 -11.12175,4.67261 -13.39494,10.62487 -2.07523,5.43393 -0.99375,6.65677 5.13299,5.80388 9.74496,-1.35657 26.38331,-12.58336 36.125,-24.37547 11.50031,-13.92088 14.53746,-25.67767 9.40825,-36.4192 -2.67491,-5.60176 -5.08828,-7.29436 -8.10136,-5.68181 -2.81291,1.50542 -9.73915,12.41922 -10.51867,16.57446 -0.97739,5.2099 -2.7494,2.87543 -2.08373,-2.74513 0.75744,-6.39538 3.62959,-12.70657 9.08584,-19.96499 4.73059,-6.29308 8.29886,-14.53646 9.22864,-21.31991 0.78835,-5.75169 -1.5487,-10.82769 -6.49107,-14.09839 -4.00737,-2.65195 -7.1529,-7.58468 -7.1529,-11.21695 0,-3.29886 1.30775,-3.4389 2.63505,-0.28219 2.43357,5.78776 6.06314,2.48347 7.87205,-7.16656 1.55594,-8.30051 -9.85192,-21.8732 -24.5824,-29.2473 -14.5839,-7.30072 -22.72111,-7.16143 -20.10465,0.34415 1.43527,4.11723 -0.28142,4.018 -2.83101,-0.16364 -5.66372,-9.28917 2.32159,-13.39898 17.09822,-8.79997 3.44599,1.07251 6.63608,1.72095 7.08909,1.44098 2.34496,-1.44927 -0.43253,-7.51094 -6.51117,-14.21012 l -4.16518,-4.5904 4.5,2.57927 c 5.41949,3.10629 11.16926,10.33526 14.17788,17.82532 1.21618,3.0277 3.13618,6.14752 4.26668,6.93292 1.13049,0.7854 3.95469,3.46116 6.27599,5.94612 2.32129,2.48497 4.51656,4.22211 4.87836,3.86031 1.1098,-1.1098 -1.49286,-9.57149 -5.25704,-17.09154 -4.97544,-9.9399 -10.94626,-18.02935 -18.92701,-25.64289 l -6.8135,-6.5 -0.97337,3.34774 c -1.23192,4.23695 -4.71136,6.79981 -14.41488,10.61759 -6.34666,2.49705 -8.00603,3.6212 -9.36654,6.34544 -2.08036,4.16564 -3.39428,2.4295 -1.52629,-2.01675 1.08719,-2.58775 3.04576,-4.15166 9.13473,-7.29402 8.21488,-4.2395 10.54499,-6.50715 10.54499,-10.26234 0,-6.69902 -9.5158,-17.35624 -20.32641,-22.76457 -7.71296,-3.85863 -11.41649,-4.37506 -12.35697,-1.72309 -0.81977,2.31157 -3.38321,5.25 -4.58002,5.25 -0.52438,0 -0.67602,-1.10523 -0.33698,-2.45606 2.2136,-8.81969 -22.70313,-18.32255 -41.39962,-15.78919 -4.69085,0.63561 -5.54749,1.07989 -5.82278,3.01988 -0.42833,3.01843 -3.63335,4.98435 -10.1366,6.21767 -2.93823,0.55722 -5.96025,1.52603 -6.71559,2.15292 -1.84564,1.53174 -3.01928,0.18297 -1.69088,-1.94318 1.12223,-1.79617 3.9047,-3.48458 8.86585,-5.37982 l 3,-1.14605 -4.42794,-1.01771 c -5.92722,-1.36229 -19.33883,0.36899 -28.98461,3.74157 -4.0769,1.42545 -7.60009,2.77928 -7.82931,3.00849 -0.22921,0.22922 2.20644,0.94573 5.41255,1.59226 3.20612,0.64653 9.65431,2.66609 14.32931,4.48792 13.14908,5.12413 12.03327,5.10625 22.25708,0.35681 7.75262,-3.60145 10.4522,-4.35232 16.74292,-4.65694 6.83064,-0.33076 8.02605,-0.0856 13.39422,2.74657 3.24182,1.71037 6.10836,2.89561 6.3701,2.63388 0.89161,-0.89162 -0.68137,-5.10286 -2.72562,-7.29711 -3.00649,-3.22709 -2.51033,-3.55317 1.94668,-1.27937 4.75446,2.42555 6.49005,4.86052 8.61523,12.08688 2.43197,8.26955 3.45482,9.02101 11.29818,8.3004 7.76092,-0.71304 14.00533,0.68524 19.35121,4.33322 4.4784,3.05601 4.99658,4.98295 0.74938,2.78664 -6.87291,-3.55412 -18.48774,-3.99657 -19.73291,-0.7517 -0.3089,0.80498 0.40933,4.22849 1.59607,7.60781 1.52599,4.34536 2.15474,8.49265 2.14758,14.16562 l -0.0101,8.02142 4.99966,6.85788 c 6.09966,8.36673 8.00034,14.38842 8.00034,25.34653 0,4.61133 0.5083,9.36716 1.12955,10.5685 0.62125,1.20134 4.3826,5.55926 8.35855,9.68426 10.73055,11.13281 14.39359,19.9145 12.93079,31 l -0.72576,5.5 -1.35125,-6.5 c -3.51424,-16.90461 -14.31296,-29.31339 -33.52063,-38.51842 -8.74057,-4.1888 -9.82127,-4.27865 -9.82127,-0.81651 0,1.88943 1.7062,4.4419 5.86243,8.77018 6.08376,6.3356 9.39224,11.74246 10.59499,17.31475 0.90541,4.19476 -0.56321,4.19476 -2.36581,0 -0.76814,-1.7875 -5.41135,-7.11703 -10.31826,-11.84341 -7.78484,-7.49842 -8.99234,-9.12036 -9.47634,-12.72889 -1.10917,-8.2695 4.04155,-11.59172 12.68786,-8.18366 7.09512,2.79663 9.81648,2.64562 10.62852,-0.58981 1.90634,-7.59546 -2.87182,-23.56178 -8.07063,-26.96817 -3.24475,-2.12604 -4.30807,-1.21166 -4.72593,4.06394 l -0.31683,4 -1.86381,-3.42043 c -1.7988,-3.30112 -1.80321,-3.73403 -0.12641,-12.41085 2.44456,-12.64965 2.16619,-16.60017 -1.68844,-23.96189 -3.95226,-7.54817 -14.33895,-18.10481 -21.84005,-22.19742 -4.59042,-2.50454 -6.53773,-2.97416 -11.98129,-2.88948 -8.76801,0.13639 -20,5.09814 -20,8.83502 0,0.62974 2.5875,4.24842 5.75,8.04151 12.33871,14.79902 13.66719,15.54771 19.25095,10.84928 2.17003,-1.82595 4.6905,-2.80185 8.07673,-3.12723 5.25424,-0.50486 7.0126,1.21876 2.41937,2.37159 -3.28601,0.82473 -7.49705,5.90938 -7.49705,9.05237 0,3.20801 1.46084,5.93206 5.75699,10.73513 1.90759,2.13267 4.35303,5.87755 5.4343,8.32194 1.84757,4.17673 1.901,5.38271 0.88733,20.02762 -0.59324,8.57079 -1.07862,19.0459 -1.07862,23.27801 0,7.01555 0.27614,8.08314 3.12836,12.09479 1.72059,2.42002 7.9633,9.35004 13.87267,15.40004 11.51484,11.78885 15.00698,17.19769 14.98532,23.21016 -0.017,4.70936 -0.9335,8.28984 -2.12203,8.28984 -0.49633,0 -0.63343,-1.07175 -0.30467,-2.38166 1.18782,-4.73264 -3.19566,-11.97228 -12.98043,-21.43815 -12.15807,-11.76183 -12.83723,-12.10294 -15.41122,-7.74036 -1.10753,1.87713 -3.06091,4.06754 -4.34085,4.8676 -2.34967,1.46871 -7.82715,3.0864 -7.82715,2.31162 0,-0.23048 1.53951,-1.95856 3.42113,-3.84018 4.34572,-4.34572 5.38238,-9.32736 3.48942,-16.76831 -0.92475,-3.63504 -1.40335,-11.18074 -1.40621,-22.17041 -0.004,-16.38361 -0.0458,-16.70445 -2.50434,-19.35023 -1.375,-1.47971 -5.06802,-3.99193 -8.20671,-5.5827 -6.72103,-3.40639 -12.32122,-8.09366 -14.34437,-12.006 -2.46594,-4.7686 -1.61662,-5.28545 2.52972,-1.53948 4.43236,4.00437 18.86228,11.63826 21.99916,11.63826 1.54028,0 2.02131,-0.65537 2.01846,-2.75 -0.005,-3.71418 -3.07463,-8.49535 -8.70068,-13.55218 -6.63984,-5.96803 -14.31476,-13.65898 -17.68135,-17.71828 -2.6975,-3.25252 -2.95848,-3.35597 -4,-1.58559 -1.93212,3.2842 -5.42252,7.12755 -5.9739,6.57798 -0.2914,-0.29045 -0.12719,-2.31324 0.3649,-4.4951 1.90043,-8.42627 -1.95178,-15.68448 -11.30347,-21.29762 -14.26628,-8.563 -37.25019,-12.54921 -46.12473,-7.99963 -9.00224,4.61504 -9.96894,11.082 -3.03026,20.27159 4.86734,6.44629 7.17158,12.33075 5.96133,15.22376 -0.64849,1.55017 -0.8913,1.3732 -1.61205,-1.17493 -0.46671,-1.65 -4.00297,-6.49667 -7.85837,-10.77037 -3.85539,-4.27371 -7.29284,-8.89808 -7.63877,-10.27638 -0.99166,-3.95108 -3.73517,-4.8404 -9.201,-2.98253 -5.60657,1.90571 -12.69791,6.6083 -12.69791,8.42055 0,0.71207 1.8,1.91093 4,2.66414 3.61782,1.23862 8.15056,5.12736 7.14664,6.13128 -0.22185,0.22185 -2.50996,-0.12708 -5.08468,-0.77541 -5.90462,-1.48679 -14.15889,-0.66905 -19.18436,1.90058 -4.03045,2.06086 -16.3776,14.19992 -16.3776,16.10159 0,0.5976 0.79987,1.08655 1.77749,1.08655 1.9948,0 6.22251,2.67276 6.22251,3.93387 0,0.45125 -2.03028,0.59161 -4.51174,0.31192 -9.5645,-1.07806 -17.22498,4.48602 -22.65058,16.45192 -1.56072,3.4421 -2.83768,6.46886 -2.83768,6.72612 0,0.25726 3.05792,-1.04352 6.79539,-2.89063 6.92599,-3.42291 15.41153,-6.20022 20.57894,-6.73547 2.53429,-0.26251 2.89961,-0.72598 3.08804,-3.91764 0.27605,-4.67588 3.73658,-10.22189 8.03617,-12.87919 1.86876,-1.15495 7.69607,-3.4435 12.9496,-5.08566 5.25352,-1.64216 9.55186,-3.34765 9.55186,-3.78997 0,-1.51408 -5.09225,-3.12527 -9.87758,-3.12527 -3.10113,0 -6.49638,0.86719 -9.65389,2.46572 -2.67873,1.35615 -5.024,2.31214 -5.21171,2.12443 -0.18771,-0.18771 1.04906,-1.51118 2.74837,-2.94106 3.30475,-2.78076 11.53458,-5.64909 16.20843,-5.64909 3.82872,0 9.20925,2.34126 10.90569,4.74545 1.90494,2.69968 7.1712,5.25455 10.83103,5.25455 1.67731,0 3.04966,0.42961 3.04966,0.95469 0,1.35817 -6.46254,2.39421 -10.67274,1.71099 -4.10164,-0.6656 -25.62655,6.2087 -29.85466,9.53454 -2.99465,2.35558 -3.25892,6.81741 -0.81189,13.70718 1.99268,5.61053 1.30771,9.22804 -2.18001,11.51329 -1.39854,0.91636 -7.5897,2.99021 -13.75815,4.60857 -6.16845,1.61836 -13.35448,4.05229 -15.96896,5.40873 -4.79658,2.48855 -6.23049,2.17037 -3.00359,-0.66649 2.91996,-2.56703 9.42904,-5.4828 17.42821,-7.80706 8.8257,-2.56441 13.50809,-5.73359 12.46962,-8.4398 -0.59133,-1.54099 -1.57091,-1.72422 -6.91835,-1.29411 -12.85565,1.03403 -31.50615,11.49397 -39.59353,22.20562 -6.27886,8.3163 -14.05411,25.5973 -11.49436,25.54697 0.47213,-0.009 4.15339,-2.65544 8.18059,-5.88036 14.36061,-11.49973 22.72083,-14.27394 36.53786,-12.12453 4.59219,0.71437 9.95543,0.99757 11.91831,0.62933 4.14549,-0.7777 8.27787,-5.02155 11.17136,-11.47274 1.61011,-3.58982 2.07685,-4.02368 2.67971,-2.49089 1.29009,3.2801 0.92016,6.83594 -1.12942,10.85607 -2.6419,5.18193 -2.56597,5.5 1.31291,5.5 4.31175,0 6.69304,-2.64337 14.41368,-16 5.72381,-9.90212 6.09515,-10.94162 6.52159,-18.25571 0.66189,-11.35263 4.6094,-14.74429 17.16068,-14.74429 8.34581,0 9.35575,1.56221 1.47209,2.27708 -8.49653,0.77044 -12.39369,4.61721 -10.27396,10.14113 0.70845,1.84619 4.7657,2.02302 11.39149,0.49648 2.47416,-0.57003 10.68592,-1.89709 18.24835,-2.94902 7.56243,-1.05193 15.06088,-2.59055 16.66322,-3.41916 4.88243,-2.5248 7.08995,-6.20287 7.08995,-11.81295 0,-4.59303 -0.35002,-5.32944 -4.33253,-9.11514 -2.38289,-2.26513 -6.21958,-5.35997 -8.52599,-6.87743 -2.51864,-1.65708 -5.98894,-5.53451 -8.68899,-9.70836 -2.47254,-3.82215 -5.47119,-7.63275 -6.66367,-8.468 -3.24745,-2.2746 -1.4624,-2.9781 2.62957,-1.03633 1.96945,0.93456 5.90399,4.38089 8.74343,7.6585 2.83945,3.27761 7.45213,7.4432 10.2504,9.25687 10.50947,6.81158 13.09254,11.47944 12.06093,21.79523 l -0.6739,6.7389 3.24717,1.7611 c 14.21376,7.7088 21.99746,14.94768 24.74295,23.0111 1.44563,4.24574 -0.0632,4.16097 -2.72965,-0.15336 -4.25168,-6.87937 -14.16478,-14.28204 -22.99164,-17.16916 -4.34315,-1.42058 -6.04064,-1.50464 -10.85802,-0.53769 -3.14053,0.63036 -13.58506,2.52987 -23.21006,4.22112 -23.88325,4.19662 -27.38742,5.86714 -34.37872,16.38909 l -2.6578,4 6.06022,0.60169 c 4.52892,0.44965 7.10863,1.36114 10.20934,3.60729 4.97809,3.6061 9.44331,11.118 10.27812,17.29102 l 0.60857,4.5 -2.47363,-4.86342 c -4.83119,-9.49863 -13.2736,-15.63658 -21.50728,-15.63658 -4.91059,0 -7.70054,2.26042 -11.16027,9.04205 -3.27751,6.42444 -2.40817,11.96207 3.46461,22.06944 2.60779,4.48815 5.3749,9.9557 6.14914,12.15011 1.62653,4.6101 1.87412,11.7384 0.4077,11.7384 -0.55,0 -1.00988,-1.2375 -1.02196,-2.75 -0.0323,-4.04485 -3.09225,-10.10491 -7.91733,-15.67986 -2.34008,-2.70375 -5.15735,-6.97561 -6.2606,-9.49302 -4.65102,-10.61276 -5.31936,-11.58662 -9.30011,-13.55171 -2.47182,-1.2202 -6.72443,-2.11927 -11.13118,-2.3533 -9.19062,-0.48808 -12.84923,1.21253 -19.67493,9.14538 -6.58804,7.65665 -14.05026,15.10761 -20.06135,20.03107 -2.60739,2.13561 -5.83105,6.08307 -7.24275,8.86893 -2.05306,4.05153 -4.81657,13.78474 -5.47479,19.28251 -0.0659,0.55 -0.50782,-0.575 -0.98216,-2.5 -0.50725,-2.05858 -0.46141,-5.76508 0.11131,-9 1.62618,-9.18525 5.4951,-15.73676 14.4682,-24.5 4.50537,-4.4 10.29766,-10.79711 12.87175,-14.2158 2.57409,-3.41869 5.67821,-6.95521 6.89803,-7.85892 2.13864,-1.58441 2.04495,-1.62159 -2.62275,-1.0409 -21.56139,2.68237 -42.53916,29.60848 -45.32248,58.17388 -1.36068,13.96475 6.20031,25.74369 18.27286,28.46649 3.81275,0.85992 9.88591,-0.39971 11.05611,-2.29314 0.40598,-0.65688 0.78229,-4.57772 0.83626,-8.71297 0.1496,-11.4634 3.28684,-16.50537 17.23554,-27.69982 4.31209,-3.46064 6.00469,-7.72285 7.18025,-18.08096 l 0.6512,-5.73786 1.71544,3.20034 c 0.97159,1.81261 1.71544,5.38997 1.71544,8.25 0,5.71688 0.36442,5.89575 7.12427,3.49679 2.40665,-0.85409 6.62573,-1.49072 9.37573,-1.41475 8.22923,0.22734 8.63163,0.10781 12.13192,-3.60358 l 3.36808,-3.5712 0,2.60332 c 0,1.43182 -0.67186,4.21131 -1.49302,6.17663 -1.37293,3.28588 -1.34281,3.78603 0.37449,6.21788 1.02714,1.45451 3.54729,6.01957 5.60035,10.14457 2.05305,4.125 4.66297,8.5125 5.79982,9.75 2.58136,2.80991 6.72846,2.8821 12.59718,0.21926 5.59776,-2.5399 11.64972,-3.54111 12.5546,-2.07698 0.43461,0.70321 -0.27731,1.10772 -1.94957,1.10772 -1.44881,0 -5.64878,1.79093 -9.33327,3.97985 -9.50175,5.64489 -12.00643,5.96362 -16.41894,2.08939 -1.97575,-1.73473 -5.59712,-7.07319 -8.14636,-12.00899 -8.60916,-16.66892 -14.98795,-18.63432 -31.90827,-9.8314 -11.51616,5.99136 -16.98385,10.65505 -20.20086,17.23038 -2.20333,4.50343 -2.59991,6.36534 -2.06642,9.70161 0.99653,6.23197 3.7674,9.23821 14.14345,15.34484 16.99227,10.00048 20.28165,14.55797 16.56746,22.9545 -1.1045,2.4969 -2.17885,4.53982 -2.38745,4.53982 -0.2086,0 -0.34641,-2.1375 -0.30623,-4.75 0.11519,-7.49117 -4.27353,-11.78712 -20.26849,-19.84005 l -7.34152,-3.69622 -6.80778,1.28454 c -8.38307,1.58177 -14.31836,0.98647 -20.3881,-2.04491 -6.53446,-3.26346 -7.33096,-2.21311 -5.79818,7.64616 1.52188,9.7891 5.91688,18.98412 11.56038,24.18611 4.39808,4.05401 12.37909,8.78534 13.28737,7.87706 0.26226,-0.26226 -0.18418,-1.75615 -0.99208,-3.31976 -0.8079,-1.56361 -1.97415,-4.72099 -2.59167,-7.01639 -0.61751,-2.2954 -2.91469,-6.55829 -5.10482,-9.47308 -4.75138,-6.3235 -5.10152,-7.9732 -0.95102,-4.48078 3.96153,3.3334 9.12004,4.73117 13.17191,3.56911 4.45864,-1.27872 4.83779,-0.20014 1.04704,2.97858 -2.43217,2.03949 -3.25,3.53728 -3.25,5.95212 0,9.41631 9.74317,16.88033 25.13321,19.25397 9.06,1.39734 17.41382,-0.38635 25.86679,-5.52304 6.86353,-4.17082 14.73093,-14.06857 15.62452,-19.65675 0.3471,-2.17067 1.00775,-3.94667 1.4681,-3.94667 1.44923,0 2.90738,3.72854 2.90738,7.43426 0,4.04762 1.30408,4.42569 8.5,2.46431 7.47374,-2.0371 10.41916,-6.77136 8.5444,-13.73367 -1.95674,-7.26677 -7.45595,-10.70008 -23.40306,-14.61116 -14.28149,-3.50258 -20.81857,-6.02228 -23.437,-9.03373 -1.17977,-1.35686 -3.39588,-2.73509 -4.92469,-3.06272 -8.1392,-1.7443 -9.77282,-4.45729 -2.68394,-4.45729 5.78913,0 10.09137,-2.49264 11.62568,-6.73571 0.84743,-2.34352 1.40813,-2.89079 1.95695,-1.91009 1.08816,1.94442 1.27713,6.59491 0.42,10.33584 -0.65784,2.87111 -0.42434,3.34858 2.33548,4.77574 1.68652,0.87213 8.74666,2.94318 15.6892,4.60234 6.94255,1.65915 14.255,3.85814 16.2499,4.88663 4.48705,2.31336 9.65526,7.61916 11.06575,11.36035 1.64058,4.35151 1.29054,12.4883 -0.68081,15.82553 -1.90776,3.22958 -9.51041,7.35654 -15.50786,8.41816 -2.0625,0.36508 -3.75,1.03061 -3.75,1.47895 0,0.44834 2.3625,1.96174 5.25,3.3631 12.35055,5.994 30.13399,7.80242 38.76122,3.94167 7.9728,-3.56788 14.98878,-12.59233 14.98878,-19.27962 0,-4.04217 -3.31217,-6.0995 -10.93224,-6.79046 -7.34483,-0.66601 -10.36138,0.96069 -13.0675,7.04674 l -1.85899,4.18083 -0.0706,-3.70295 c -0.0388,-2.03662 0.41771,-4.77475 1.01457,-6.08473 2.57908,-5.66046 13.30404,-8.16065 22.84629,-5.32588 2.98733,0.88746 7.56521,1.61356 10.17308,1.61356 3.9259,0 5.25319,-0.51162 7.71567,-2.97409 3.42767,-3.42768 6.17975,-10.658 6.17975,-16.23559 0,-4.83482 -2.73557,-13.02687 -7.95243,-23.81466 -4.80152,-9.92893 -5.39648,-16.15065 -1.90302,-19.90044 1.82832,-1.96247 2.86919,-2.23227 7.05886,-1.8297 6.39862,0.61483 8.8817,2.75448 3.19659,2.75448 -2.2,0 -4.54,0.54 -5.2,1.2 -2.3724,2.3724 -1.26895,8.38666 3.3136,18.06052 2.48248,5.24057 5.24844,12.61332 6.14658,16.38389 2.32755,9.77157 2.46784,9.86262 15.12553,9.81685 17.65236,-0.0638 26.75961,-3.72937 31.27981,-12.58969 2.24972,-4.40982 2.17813,-6.65065 -0.42717,-13.37157 -1.61028,-4.15406 -2.04956,-10.36367 -1.00806,-14.25 0.98843,-3.68834 2.05259,-2.57543 2.69091,2.8142 0.7513,6.34359 4.35855,13.01571 7.97362,14.74837 3.91785,1.87778 8.57205,0.11031 14.25594,-5.4138 4.68955,-4.55772 9.26996,-12.96192 9.66484,-17.73318 0.12134,-1.46607 0.54214,-2.66559 0.93512,-2.66559 1.29293,0 2.051,4.11122 1.39895,7.58694 -0.57874,3.08496 -0.41793,3.41306 1.67288,3.41306 2.32084,0 8.22634,-3.4541 12.63884,-7.39239 3.02246,-2.69763 9.44732,-12.10436 13.26113,-19.41579 l 2.96899,-5.69182 -0.59477,4 c -1.80785,12.15851 -8.29895,23.17594 -17.46138,29.63746 l -6.12663,4.32062 2.47978,1.80639 c 3.22973,2.3527 4.86042,7.32463 3.68503,11.23553 -0.4959,1.65 -0.94031,2.22816 -0.98759,1.2848 -0.12334,-2.46141 -5.5578,-8.32339 -9.06194,-9.77485 -3.9484,-1.63548 -6.47577,-0.86877 -12.76228,3.87159 -2.88104,2.17246 -7.38104,4.67738 -10,5.56649 -6.0815,2.0646 -7.2423,3.02724 -10.56994,8.76553 l -2.73339,4.71357 2.87236,1.48535 c 5.13399,2.65491 9.16921,8.18905 9.16921,12.57526 0,3.84185 -1.69801,9.01226 -2.95971,9.01226 -0.35128,0 -0.46176,-1.51556 -0.2455,-3.36791 0.69563,-5.95859 -3.41897,-11.56805 -10.2098,-13.91909 -3.42857,-1.187 -4.21747,-1.09739 -8.43368,0.95799 -6.43574,3.13737 -16.88593,4.57814 -27.29818,3.76361 -9.87168,-0.77225 -10.28599,-0.54304 -15.94212,8.81939 -2.25791,3.73746 -4.02273,5.26288 -8.25352,7.13394 -9.07718,4.01436 -11.32463,9.59972 -4.93672,12.26876 7.40945,3.09587 17.11042,-0.27008 25.44763,-8.82958 2.65738,-2.72823 4.8316,-4.68381 4.8316,-4.34573 0,0.33808 -1.53548,3.01503 -3.41217,5.94877 -6.12143,9.56934 -13.18401,13.4029 -26.77141,14.53151 -6.03748,0.50149 -9.50353,1.30286 -11.37435,2.62981 -1.47992,1.04969 -4.5473,3.06672 -6.81641,4.48229 l -4.12566,2.57375 0,6.56155 c 0,5.02416 -0.44219,7.05243 -1.88729,8.65668 -2.27381,2.52423 -7.24881,3.60552 -11.78454,2.56129 l -3.32817,-0.76622 4.3591,-1.29851 c 5.68415,-1.69322 7.1409,-3.0013 7.1409,-6.41216 0,-3.7669 -3.90556,-6.70585 -9.82038,-7.38989 -9.08407,-1.05056 -21.67979,-4.62108 -28.46883,-8.07008 -8.22968,-4.18089 -11.42579,-4.47387 -12.26644,-1.12446 -1.23176,4.90772 3.42098,16.63784 8.91345,22.47192 3.12875,3.32334 10.67424,7.89946 10.60676,6.43269 -0.0195,-0.42367 -0.67854,-1.89532 -1.46456,-3.27032 -1.5526,-2.71599 -1.95363,-9.73724 -0.6715,-11.75675 0.52699,-0.83007 1.57127,0.60921 3.07587,4.23931 2.79792,6.75049 10.04486,13.58805 17.39763,16.41484 6.3132,2.42713 14.45422,2.62729 24.97516,0.61406 z m -19.51298,-89.17326 c 3.82301,-4.87433 5.83364,-9.36447 7.34138,-16.39482 2.13467,-9.9536 -0.88528,-15.22067 -10.86862,-18.95592 -7.91659,-2.96198 -10.72505,-5.27498 -15.84951,-13.05342 -2.488,-3.77655 -5.73049,-7.7674 -7.20553,-8.86856 -2.26087,-1.68781 -2.38645,-2.00709 -0.79993,-2.0338 3.05241,-0.0514 8.06386,3.60403 13.22788,9.64858 3.69627,4.32654 6.52208,6.43489 12.0442,8.98626 3.96818,1.83342 7.90259,3.33348 8.74315,3.33348 0.84055,0 3.36256,-2.7011 5.60447,-6.00245 2.2419,-3.30135 5.18367,-6.72811 6.53726,-7.61501 4.68151,-3.06745 2.6828,-11.93304 -4.65106,-20.63057 -4.29325,-5.09154 -4.30528,-5.54657 -0.0882,-3.33729 4.12488,2.16099 8.87342,7.57709 11.13747,12.70321 1.12177,2.53984 2.63087,5.10862 3.35355,5.70839 1.80143,1.49506 15.45039,0.28979 17.26473,-1.52455 1.67597,-1.67598 4.44458,-10.60571 4.44458,-14.33535 0,-3.75656 -3.85245,-9.03521 -8.52957,-11.68728 -2.18374,-1.23824 -7.84115,-3.64529 -12.57203,-5.34899 -9.29205,-3.34628 -20.05429,-8.89779 -20.63673,-10.64509 -0.1986,-0.59581 1.36405,-0.22976 3.47255,0.81344 2.1085,1.04321 8.31837,2.84694 13.79971,4.00829 13.65999,2.89419 20.314,5.55172 24.61997,9.8329 6.17138,6.13584 6.93868,12.39523 3.05848,24.95016 l -1.66577,5.38982 3.4767,2.5671 c 8.96151,6.61696 20.80944,22.56232 22.50683,30.29051 0.64064,2.91679 4.70549,6.86276 7.06953,6.86276 1.18131,0 3.40033,2.90618 3.40033,4.45331 0,0.32164 -1.12796,0.30169 -2.50657,-0.0443 -3.67063,-0.92126 -8.79357,0.30547 -12.89285,3.08732 l -3.60058,2.4434 0,-2.93468 c 0,-1.91123 0.69749,-3.30797 2,-4.00505 2.80517,-1.50128 2.53905,-5.36552 -0.86083,-12.5 -5.61464,-11.78206 -14.50813,-21.46368 -22.45427,-24.44411 -4.02109,-1.50823 -13.48766,-1.30363 -19.28067,0.41671 -5.58168,1.65758 -10.06577,5.78457 -13.29643,12.23756 -1.62673,3.24926 -2.1078,6.06956 -2.1078,12.35703 0,6.95272 -0.4312,9.05038 -2.94179,14.31084 -3.00713,6.30088 -5.26516,8.9185 -10.55821,12.23962 l -3,1.88235 3.26418,-4.1618 z m 153.53574,-60.96297 c 1.47756,-5.38861 1.60089,-7.63266 0.68826,-12.52325 -2.19215,-11.74717 -10.76676,-23.76589 -18.10544,-25.37774 -1.58551,-0.34823 -2.88274,-1.01164 -2.88274,-1.47424 0,-1.32234 5.48209,-2.18779 9.30976,-1.46971 l 3.47744,0.65237 0.69764,-5.07247 c 0.7693,-5.59348 3.66421,-10.11019 6.47994,-10.11019 1.74646,0 1.74354,0.14923 -0.0726,3.71144 -1.04071,2.04129 -1.86626,5.30379 -1.83455,7.25 0.0643,3.94898 2.57942,13.58557 5.81065,22.26358 2.6137,7.0195 2.68279,12.96466 0.21386,18.40161 -2.00198,4.40868 -4.69512,7.07786 -3.78224,3.7486 z m -92.29992,144.59602 c 18.70464,-6.47979 30,-16.09453 30,-25.53635 0,-1.33919 0.36,-2.4349 0.8,-2.4349 1.84102,0 3.2,2.64636 3.2,6.23138 0,5.07256 1.60333,5.50689 8.14877,2.20745 14.90682,-7.51427 29.85123,-19.95602 29.85123,-24.85221 0,-3.78649 -3.60514,-3.39642 -12.2971,1.33053 -8.45919,4.60036 -15.45633,6.79923 -24.58683,7.72651 -6.447,0.65474 -6.76026,0.82126 -12.25845,6.5163 -6.4355,6.66591 -15.07709,11.23222 -24.3946,12.89036 -8.9453,1.59191 -8.95664,1.59874 -11.98063,7.22016 -1.54724,2.87624 -3.63261,6.29491 -4.63416,7.59706 -1.00154,1.30214 -1.54053,2.82131 -1.19776,3.37592 0.96452,1.56063 12.0399,0.26005 19.34953,-2.27221 z m 42.5,-2.3612 c -4.25287,-1.03758 -10.06812,-3.48602 -8.5,-3.57882 0.275,-0.0163 3.81959,0.66295 7.87687,1.50938 4.05728,0.84644 7.53932,1.37653 7.73787,1.17798 0.19855,-0.19855 -2.14808,-1.15191 -5.21474,-2.11859 -6.18738,-1.9504 -6.81376,-3.36395 -0.74377,-1.67847 2.11407,0.58702 5.41877,1.02163 7.34377,0.9658 l 3.5,-0.10151 -4.16194,-0.93435 c -2.28907,-0.51389 -4.65207,-1.52491 -5.25111,-2.24671 -0.89125,-1.07388 -0.14817,-1.06827 4.08916,0.0309 6.09187,1.58021 7.2446,1.1504 2.91682,-1.08758 -1.70111,-0.8797 -3.09293,-1.8012 -3.09293,-2.0478 0,-0.2466 4.06571,-0.4291 9.03491,-0.40555 11.9649,0.0567 17.89697,-1.93138 24.01346,-8.04786 6.46383,-6.46383 11.24954,-19.73944 9.55284,-26.49966 -0.89233,-3.55532 -2.23767,-3.18014 -4.50032,1.25503 -3.52722,6.91392 -10.79638,13.95027 -17.92816,17.35395 -6.89474,3.29056 -7.30846,5.17535 -0.5158,2.34985 6.37358,-2.65118 11.29923,-6.59853 15.42714,-12.3631 4.63786,-6.47668 5.3098,-4.59019 0.7936,2.22803 -4.83859,7.30493 -13.5761,12.94981 -22.0359,14.23631 -6.71535,1.02122 -8.3292,2.61966 -2.01459,1.99535 7.32544,-0.72424 15.75878,-4.80437 21.42282,-10.36454 5.25974,-5.1633 6.18459,-4.98549 2.07735,0.39938 -5.63661,7.38998 -13.82921,11.26593 -26.32735,12.45557 l -7.5,0.71389 9,-0.15346 c 7.08408,-0.1208 9.94634,-0.62633 13.44543,-2.3747 5.34904,-2.67273 6.6232,-2.21526 1.91735,0.6884 -5.96529,3.68078 -13.54743,5.34536 -21.58066,4.7378 -6.55874,-0.49603 -8.11883,-0.23416 -15.04969,2.52617 -9.8824,3.93583 -11.28934,5.127 -8.09909,6.85702 2.91981,1.58336 11.49549,3.74175 14.86666,3.74175 1.375,0 0.25,-0.54894 -2.5,-1.21986 z m -162.07326,-15.0304 c 5.02642,-2.45921 8.53063,-5.95561 7.25119,-7.23506 -0.26627,-0.26626 -2.21776,0.40032 -4.33665,1.4813 -9.60033,4.89773 -24.84474,5.826 -35.02525,2.13278 -3.19882,-1.16044 -7.16603,-2.32453 -8.81603,-2.58685 l -3,-0.47695 3.32367,2.93689 c 5.64473,4.98786 14.0939,7.26953 25.34741,6.845 8.04263,-0.3034 10.61142,-0.8249 15.25566,-3.09711 z m 201.69113,-25.25096 c 1.6912,-2.45808 2.91904,-4.61065 2.72852,-4.78348 -0.19051,-0.17283 -3.48237,3.34629 -7.31523,7.82028 -6.15894,7.18915 -6.47604,7.74507 -2.72852,4.78347 2.33217,-1.84307 5.62402,-5.36219 7.31523,-7.82027 z M 185.66715,354.1993 c 0.84591,-1.34326 0.47073,-3.50003 -1.6526,-9.5 -1.51084,-4.26922 -2.74257,-8.32961 -2.73719,-9.02311 0.005,-0.69349 -0.95182,-3.30663 -2.12712,-5.80698 -2.64745,-5.63221 -7.92312,-9.43212 -13.09523,-9.43212 -4.20407,0 -4.88913,-1.32955 -1.59378,-3.09317 1.37761,-0.73727 4.49157,-0.94712 8.5,-0.5728 7.03454,0.65689 7.60481,0.0398 4.8629,-5.26251 -1.70606,-3.29916 -3.31087,-4.07152 -8.45984,-4.07152 -2.0676,0 -5.87609,-0.63707 -8.4633,-1.4157 -10.99115,-3.30785 -16.58721,-11.60692 -16.60407,-24.6242 -0.0126,-9.73501 1.91622,-16.99804 7.95645,-29.9601 6.39318,-13.71947 7.45563,-17.70723 5.50918,-20.67789 -0.90757,-1.38512 -2.07268,-2.03014 -3.01437,-1.66878 -2.03493,0.78087 -4.46103,5.59717 -4.46103,8.85603 0,1.48447 -0.43095,2.34233 -1,1.99064 -0.55,-0.33992 -1,-2.80695 -1,-5.48229 0,-9.71709 7.95376,-14.42667 13.41111,-7.94098 4.45918,5.29944 3.22147,12.2853 -5.30162,29.92327 -5.56614,11.51875 -7.87841,22.30253 -6.34731,29.60206 2.03212,9.68824 7.34184,14.29598 18.32793,15.90486 7.15429,1.04773 9.40211,-1.51912 11.83616,-13.51601 1.06111,-5.23 3.4973,-14.23 5.41375,-20 1.91645,-5.77 3.99392,-13.64091 4.6166,-17.49091 0.62268,-3.85 1.85837,-8.93886 2.74599,-11.30857 1.32016,-3.52451 1.41435,-5.17284 0.51759,-9.05783 -1.68669,-7.30712 0.4086,-14.34991 5.20401,-17.49198 3.55788,-2.33121 3.80929,-2.0728 1.56483,1.60838 -2.9551,4.84671 -2.50768,12.04886 0.61713,9.93402 0.55587,-0.37621 4.24688,-4.19825 8.20225,-8.49342 4.52304,-4.9116 7.16968,-8.62225 7.13255,-10 -0.0924,-3.42961 -4.2641,-11.12915 -6.2356,-11.50882 -2.81787,-0.54268 -16.03652,8.30597 -21.75506,14.56297 -5.66499,6.1984 -9.11685,12.95491 -9.13732,17.88497 -0.007,1.72135 0.96192,5.32135 2.15347,8 1.19155,2.67865 2.42005,6.9725 2.73001,9.54189 0.66512,5.51364 -1.561,9.81667 -7.15395,13.82839 -4.68197,3.35829 -6.54252,7.57402 -6.54252,14.8244 0,4.96467 0.439,6.54387 2.5,8.99323 3.42413,4.06935 3.19289,5.16907 -0.94571,4.49747 -4.96007,-0.80491 -8.30251,0.32626 -9.88424,3.3451 l -1.3805,2.6348 -0.51983,-2.71927 c -0.36965,-1.93375 0.16627,-3.53464 1.85523,-5.54186 1.99295,-2.36849 2.37595,-3.92552 2.38063,-9.67823 0.009,-11.52945 1.0374,-13.73733 10.33058,-22.18688 4.46837,-4.06274 4.62549,-6.38503 1.06894,-15.7997 -3.51783,-9.31217 -3.00822,-13.6332 2.81501,-23.86906 2.95978,-5.20257 5.34483,-11.19065 6.82071,-17.12451 3.32897,-13.38432 2.23378,-14.71929 -7.34395,-8.95188 -3.7126,2.23562 -5.36893,2.84287 -4.77325,1.75 1.66757,-3.0594 7.52677,-8.05156 11.29426,-9.62293 4.79968,-2.00189 12.69729,-1.99883 15.55961,0.006 3.35773,2.35185 2.74674,3.9433 -1.51389,3.9433 l -3.7377,0 -2.23979,6.93983 c -1.23188,3.8169 -1.99343,7.18618 -1.69233,7.48728 0.3011,0.3011 2.20318,-0.4676 4.22684,-1.70823 2.02366,-1.24063 6.89656,-3.89866 10.82867,-5.90674 6.48405,-3.31132 7.20484,-3.98421 7.74632,-7.23159 1.18231,-7.09067 6.7627,-15.18774 14.68771,-21.31168 4.07918,-3.15213 8.20418,-7.19511 9.16668,-8.9844 l 1.75,-3.25327 -0.007,2.9844 c -0.008,3.84098 -2.16649,7.00031 -9.08823,13.30521 -6.5179,5.93704 -11.01516,14.74438 -11.70826,22.92919 -0.39013,4.607 -0.2173,5.25 1.41116,5.25 1.02065,0 4.11388,-2.36297 6.87383,-5.25104 2.75995,-2.88807 6.28434,-6.2851 7.83199,-7.54895 3.17368,-2.59171 3.26605,-5.89758 0.14985,-5.36336 -1.08006,0.18516 -2.97625,1.2761 -4.21375,2.42431 -2.46467,2.28685 -2.89026,1.23835 -1.09587,-2.69988 1.53388,-3.3665 4.76875,-5.36669 10.02547,-6.19895 3.20319,-0.50713 5.95131,-2.06464 10.62731,-6.02307 3.46921,-2.93646 6.62106,-5.33904 7.00452,-5.33904 0.80036,0 13.18898,-11.74059 13.18898,-12.49909 0,-2.19577 -9.32281,1.22758 -13.81535,5.07303 -5.31393,4.54853 -5.73856,2.15182 -0.62213,-3.51146 4.90662,-5.43104 10.77725,-7.24054 22.62771,-6.97451 5.225,0.11729 10.54493,-0.29492 12.12487,-0.93949 1.5483,-0.63166 3.64058,-1.14848 4.64951,-1.14848 1.00893,0 4.16276,-1.56686 7.00851,-3.48191 2.84576,-1.91506 7.05348,-3.99067 9.35049,-4.61249 2.29702,-0.62181 8.22639,-3.06988 13.17639,-5.44015 4.95,-2.37027 10.0125,-4.59998 11.25,-4.95491 1.2375,-0.35492 2.25,-1.28142 2.25,-2.05888 0,-4.54668 -29.13437,-3.59236 -36.78187,1.20482 -3.23422,2.02879 -1.8667,3.33109 3.59089,3.4196 2.58004,0.0418 6.26598,0.6468 8.19098,1.34436 l 3.5,1.26827 -6.17817,1.09302 c -3.39799,0.60116 -8.34441,2.2462 -10.99204,3.65565 -4.80882,2.55993 -9.45813,3.08116 -14.32979,1.60651 l -2.5,-0.75676 3,-0.73337 c 6.87488,-1.68064 9.5,-2.77941 9.5,-3.97633 0,-2.2066 -3.70714,-4.72984 -7.67238,-5.22214 -4.56445,-0.56669 -18.28331,1.75496 -23.64959,4.00224 -3.63094,1.52056 -4.25961,3.64247 -1.07917,3.64247 2.15368,0 8.79892,3.56393 10.46804,5.61414 1.29484,1.5905 1.24015,1.68749 -0.5669,1.00536 -1.1,-0.41523 -3.95477,-1.27912 -6.34393,-1.91976 -4.10893,-1.10178 -4.67379,-0.98207 -10.44098,2.21273 -3.35337,1.85763 -10.39327,5.1256 -15.64423,7.26214 -6.23715,2.53781 -10.85144,5.15818 -13.30903,7.55796 -4.14209,4.04464 -4.81176,3.50166 -1.79118,-1.45233 2.68953,-4.41105 8.78236,-8.61542 17.34054,-11.96588 6.09604,-2.38655 6.75851,-2.86364 4.35808,-3.13857 -9.06361,-1.03809 -31.13871,6.90549 -40.6383,14.62343 -6.35461,5.16279 -14.03097,12.90601 -14.03097,14.15316 0,0.58887 2.16463,1.04762 4.9433,1.04762 3.97464,0 5.24833,-0.43551 6.5,-2.22251 0.85618,-1.22237 1.5567,-3.04893 1.5567,-4.05901 0,-1.01008 0.45,-1.5584 1,-1.21848 0.55,0.33992 1,2.41193 1,4.60447 0,4.89659 -3.48148,8.89553 -7.74445,8.89553 -3.90252,0 -13.91499,2.6811 -18.80752,5.0362 -5.04778,2.42983 -13.45108,9.53959 -18.50757,15.65864 -4.28502,5.18546 -11.62962,18.94934 -10.63981,19.93914 0.35097,0.35097 3.37439,-1.89517 6.7187,-4.99141 6.9959,-6.47697 10.14263,-7.71094 13.02094,-5.1061 2.20455,1.99509 2.52151,5.955 0.81229,10.14843 -0.63108,1.54831 -1.45603,4.6151 -1.83323,6.8151 l -0.68581,4 -1.25722,-3 c -0.79876,-1.90601 -1.03256,-4.9669 -0.64114,-8.39371 0.76658,-6.71137 1.04761,-6.88522 -14.12653,8.73894 -11.98573,12.3412 -15.35679,17.40274 -17.77574,26.68973 -1.72499,6.62269 -2.0565,19.02341 -0.53371,19.96454 0.54956,0.33965 1.96975,-1.02743 3.15598,-3.03794 1.83516,-3.11037 2.29611,-3.40654 3.09103,-1.98609 1.41098,2.52128 0.0954,6.15114 -4.19766,11.58232 -4.74842,6.00721 -6.43333,12.64027 -5.05586,19.90365 1.38615,7.30915 3.03957,9.93188 12.82689,20.34658 4.8366,5.14663 9.62172,11.10219 10.63361,13.23457 2.46517,5.19496 3.06851,11.47144 1.32592,13.79329 -1.25875,1.67717 -1.38663,1.5265 -1.47931,-1.74291 -0.0558,-1.96833 -1.25494,-5.54708 -2.66477,-7.95277 -2.61689,-4.46539 -12.94092,-14.6402 -14.85491,-14.6402 -2.18968,0 0.16972,10.50947 4.18334,18.63384 4.5128,9.13481 12.25105,17.18493 20.38556,21.20714 6.43285,3.18081 7.71762,2.51729 6.99182,-3.61091 -0.44807,-3.78326 -0.11524,-5.73875 1.49732,-8.79732 l 2.07345,-3.93275 0.0662,4 c 0.16618,10.04767 8.68792,19.16031 12.40223,13.26221 z m 331.88939,-64.20094 c 4.17342,-8.75175 4.25411,-27.44112 0.15577,-36.07773 -1.50906,-3.18012 -5.71276,-6.48354 -8.2505,-6.48354 -0.50856,0 -0.93656,2.8125 -0.9511,6.25 -0.0177,4.1814 -0.8865,8.60688 -2.625,13.37099 -1.42921,3.91654 -2.59856,7.81146 -2.59856,8.65538 0,0.84392 1.61468,3.46705 3.58819,5.82918 1.9735,2.36213 4.27236,6.00471 5.10858,8.09462 1.88415,4.70896 3.45086,4.81048 5.57262,0.3611 z m -1.26939,-51.35117 c 0,-6.13928 -2.33924,-15.22092 -5.7148,-22.18656 l -2.6539,-5.47647 -0.80251,2.97647 c -0.44138,1.63705 -1.04717,5.00146 -1.3462,7.47646 -0.29903,2.475 -1.28306,6.84959 -2.18672,9.72132 -2.16717,6.88696 -0.89096,10.24533 3.93269,10.34897 1.79929,0.0386 4.17144,0.45702 5.27144,0.92971 3.29576,1.41624 3.5,1.19508 3.5,-3.7899 z"
               id="path3482"
               inkscape:connector-curvature="0" />
            <path
               style="fill:url(#linearGradient4451);fill-opacity:1;fill-rule:evenodd;stroke:#412821;stroke-width:3.31055713;stroke-linecap:round;stroke-linejoin:round;stroke-miterlimit:4;stroke-dasharray:none;stroke-opacity:1"
               d="m 240.333,129.84557 c 27.13909,-8.22369 87.07723,21.2291 102.62876,90.80856 13.81359,49.32259 41.17741,52.92725 59.81429,50.12652 15.92096,-2.39259 26.25515,-11.31959 29.92253,-29.73108 0.57461,-51.94287 -17.98191,-66.45554 -15.9104,-82.17722 -7.9658,-22.27308 -54.66309,-45.52905 -54.66309,-45.52905 -18.75499,-4.31927 -28.62623,-3.73512 -42.11765,-4.21885 -27.98979,0.60817 -35.04665,2.90731 -58.18662,6.39769 -6.50359,2.4554 -7.53943,6.0449 -21.48782,14.32343 z"
               id="path4431"
               inkscape:connector-curvature="0"
               sodipodi:nodetypes="ccscccccc" />
            <path
               style="fill:#a58c84;fill-opacity:1;fill-rule:evenodd;stroke:none;stroke-width:0.76981407px;stroke-linecap:butt;stroke-linejoin:miter;stroke-opacity:1"
               d="m 249.71708,126.37898 c 53.39834,-1.53384 61.89455,29.79648 85.30935,38.64971 13.87232,5.24518 30.38633,-1.44348 73.65654,-0.88183 -3.54657,-8.09429 -63.2125,1.93776 -76.28032,-8.1027 -14.61051,-11.22579 -55.91942,-45.9087 -82.68557,-29.66518 z"
               id="path4443"
               inkscape:connector-curvature="0"
               sodipodi:nodetypes="csccc" />
            <g
               transform="matrix(1.182922,0.16222291,-0.16222291,1.182922,-29.617967,-100.75196)"
               id="g4509">
              <g
                 transform="matrix(0.92982567,-0.3680003,0.3680003,0.92982567,242.58949,51.454124)"
                 id="g4553"
                 style="fill:#b5a18e;fill-opacity:1;stroke:none;stroke-opacity:1">
                <circle
                   r="3.0628891"
                   cy="200.37352"
                   cx="58.225227"
                   id="path4453"
                   style="opacity:1;fill:#b5a18e;fill-opacity:1;stroke:none;stroke-width:3;stroke-linecap:round;stroke-linejoin:round;stroke-miterlimit:4;stroke-dasharray:none;stroke-opacity:1" />
                <circle
                   r="3.0628891"
                   cy="225.47447"
                   cx="83.290817"
                   id="path4453-5"
                   style="opacity:1;fill:#b5a18e;fill-opacity:1;stroke:none;stroke-width:3;stroke-linecap:round;stroke-linejoin:round;stroke-miterlimit:4;stroke-dasharray:none;stroke-opacity:1" />
                <circle
                   r="3.0628891"
                   cy="225.55173"
                   cx="58.065666"
                   id="path4453-3"
                   style="opacity:1;fill:#b5a18e;fill-opacity:1;stroke:none;stroke-width:3;stroke-linecap:round;stroke-linejoin:round;stroke-miterlimit:4;stroke-dasharray:none;stroke-opacity:1" />
                <circle
                   r="3.0628891"
                   cy="200.49852"
                   cx="82.850227"
                   id="path4453-9"
                   style="opacity:1;fill:#b5a18e;fill-opacity:1;stroke:none;stroke-width:3;stroke-linecap:round;stroke-linejoin:round;stroke-miterlimit:4;stroke-dasharray:none;stroke-opacity:1" />
              </g>
            </g>
          </g>
        </g>
      </g>
    </g>
  </g>
</svg>
